<?xml version="1.0" ?><svg viewBox="0 0 512 512" xmlns="http://www.w3.org/2000/svg"><defs><style>.e{fill:#f2c34e;}.f{fill:#cecece;}.g{fill:#bebebe;}.h{fill:#dfdfdf;}.i{fill:#41a08e;}.j{fill:#349381;}.k{fill:#75bbad;}</style></defs><g id="a"/><g id="b"/><g id="c"><g><path class="h" d="M487.42712,206.78882l-1.15271-50.72607-.05103-.0105c.45361-7.59497-4.42725-14.79053-12.14575-16.8606l-.01074-.00269c-8.2677-2.21729-16.81274,2.28369-19.71387,10.28516l-.21582-.04468c1.46362-8.27148-3.59277-16.52417-11.96777-18.74585l-.04309-.01147c-8.40356-2.22925-17.09119,2.46436-19.83264,10.71509l-.45703,1.37524h0l29.01733-94.4353c2.79041-8.85352-2.4563-18.22778-11.46179-20.479-8.53943-2.13501-17.21228,2.97705-19.48035,11.48193l-30.74207,104.50928-17.8551-103.26611c-1.80469-9.02295-10.78479-14.70581-19.71143-12.47412l-.87427,.21875c-8.27283,2.06812-13.50256,10.2229-11.93115,18.60449l21.20215,113.07764-8,48,32,64-24,224h112l-16-216,18.01172-27.01758c9.10474-13.65723,13.78833-29.78418,13.41541-46.1936Z"/><path class="h" d="M313.45972,184.35693l-.8949-.14551c-9.08069-1.47583-17.55188,4.93848-18.59399,14.0791l-8.97815,104.34863-38.71637-93.89526c-3.0802-8.12988-12.05243-12.35254-20.2804-9.54492h-.00006c-8.88184,3.03101-13.30725,12.97827-9.61145,21.60474l35.22412,82.20605c-3.43433-7.98096-12.4801-11.92285-20.66516-8.99805l-.01666,.00586c-8.94232,3.19531-13.33606,13.27148-9.59222,21.99854l-.79541-1.85425c-3.43304-8.0022-12.50665-11.94409-20.69861-8.99194l-.01044,.00366c-7.52008,2.70996-11.78113,10.29224-10.68994,17.82446l-.05078,.00903-.74341,46.68677c-.2832,17.78564,5.36908,35.1582,16.06348,49.37183l19.12598,25.42017,2.05212,51.51416h87.61908l-12.49023-66.03076,22.66858-56.79126c2.5072-6.28101,2.95984-13.19482,1.29309-19.74927l-9.42822-37.07617,11.65527-114.45898c.86377-8.48218-5.02979-16.16895-13.44531-17.53662Z"/><path class="f" d="M176.4071,194.52319l-4.65167-46.46045-.05212,.00732c.46228-7.60156-4.4201-14.80688-12.14484-16.87842l-.01068-.00269c-8.41046-2.25562-17.12195,2.43237-19.87256,10.69434l-.63739,1.91431c2.99963-9.01001-2.2226-18.68286-11.40125-21.11768l-.01709-.00464c-8.38831-2.2251-17.0567,2.44336-19.8244,10.66064l28.19952-84.83081c2.96027-8.90552-2.2829-18.44751-11.38745-20.72363-8.43433-2.10864-17.02124,2.85083-19.40961,11.21021l-30.81146,96.96411L56.79498,32.57031c-1.8042-9.02124-10.78284-14.70312-19.70801-12.47192l-.87958,.21997c-8.27142,2.06787-13.50024,10.22144-11.92902,18.60132l21.20258,113.08032-6.28931,37.7356c-1.11182,6.67114-.08154,13.52271,2.94293,19.57178l27.34637,54.69263-24,232h112l-9.87433-224,16.92932-26.93286c9.46613-15.05981,13.64325-32.84473,11.87115-50.54395Z"/><polygon class="j" points="147.99115 280.72339 157.48096 496 45.48096 496 68.66278 271.90918 147.99115 280.72339"/><polygon class="k" points="147.99115 280.72339 68.66278 271.90918 62.84741 328.12427 150.43164 336.08643 147.99115 280.72339"/><rect class="j" height="8" width="16" x="85.48096" y="300"/><path class="e" d="M459.08435,321.63867l-8.78564,2.92847c-21.48083,7.16016-45.10767,3.32617-63.22192-10.25952l-7.04089-5.30981-3.00171,28.01514c22.67188,21.75024,57.16748,25.39917,83.85632,9.00244l-1.80615-24.37671Z"/><path class="i" d="M255.97467,23.94922c-39.7785,0-72.02533,32.24707-72.02533,72.02539s32.24683,72.02539,72.02533,72.02539,72.02533-32.24683,72.02533-72.02539S295.75317,23.94922,255.97467,23.94922Zm-54.01898,72.02539c0-26.76611,19.46729-48.98584,45.01556-53.27197l.00024,44.2688-37.12683,37.12646c-5.00488-8.19189-7.88898-17.8208-7.88898-28.12329Zm20.58868,42.43481l24.42712-24.42847,.00543,35.2666c-9.12244-1.5293-17.46973-5.34521-24.43256-10.83813Zm42.43365,10.8374l-.00024-35.26587,24.42749,24.42822c-6.96143,5.49194-15.30688,9.30737-24.42725,10.83765Zm37.12671-25.14917l-37.12695-37.12622-.00928-44.27051c25.55298,4.28247,45.02515,26.50415,45.02515,53.27368,0,10.30249-2.88403,19.93115-7.88892,28.12305Z"/><path class="g" d="M164.53955,158.73535l-7.08691,21.25977c-2.11084,6.33594-8.79688,9.87207-15.22217,8.03906-.46155-.1311-.90912-.29077-1.34637-.47021,1.27374-1.95679,2.32385-4.0957,3.09149-6.39893l1.30029-3.90039c.34473-1.03418,.25195-2.16602-.25684-3.13086-.50928-.96484-1.39014-1.67969-2.43896-1.97949l-8.00531-2.28711,8.89594-26.7207-7.59082-2.52734-9.00464,27.0481-23.99768-6.85645,8.68884-26.14966-7.5918-2.52344-8.79639,26.47314-8.59814-2.45654c-.96191-.27637-1.99316-.17871-2.88818,.26758l-37.48096,18.74023,3.57812,7.15625,36.08887-18.04492,50.48682,14.4248c-3.20459,9.51172-13.02881,15.19336-22.87451,13.22461l-19.22461-3.84473c-1.83496-.36719-3.67383,.58301-4.43604,2.28906-.7627,1.70508-.24316,3.71191,1.25098,4.83301l4.84766,3.63574c5.90234,4.42676,9.5874,11.18652,10.11084,18.5459,.52295,7.35938-2.16943,14.57227-7.38672,19.79004l5.65723,5.65625c6.85791-6.85742,10.39697-16.33984,9.70898-26.01367-.46924-6.60742-2.87842-12.84766-6.83108-17.99414l4.73342,.94629c8.58533,1.71729,17.15613-.72241,23.48584-6.02222,1.45093,.83862,2.99207,1.51733,4.63477,1.98511,1.87939,.53418,3.77148,.79004,5.6333,.79004,8.58984,0,16.51709-5.44238,19.36768-13.99512l7.08691-21.25977-7.58984-2.5293Z"/><path class="f" d="M277.54346,323.95996c-.93018-.37207-1.96484-.37988-2.8999-.02539l-8.36279,3.16846-10.9834-25.64307-7.35352,3.15039,10.84912,25.32959-23.33923,8.84277-11.23889-26.19775-7.35156,3.1543,11.10242,25.88037-7.78503,2.94971c-1.02051,.38574-1.83838,1.17285-2.26465,2.17676-.42676,1.00391-.42432,2.13867,.00586,3.1416l1.62256,3.77832c.95795,2.23071,2.18359,4.27441,3.61676,6.11743-.42078,.21558-.85358,.41211-1.3028,.58179-6.24902,2.35742-13.20703-.60059-15.84229-6.73633l-8.90283-20.73145-7.35059,3.15625,8.90283,20.73145c3.32129,7.73438,10.82178,12.39453,18.76953,12.39453,2.40967,0,4.8623-.42871,7.25-1.33008,1.59851-.60376,3.07739-1.40918,4.45233-2.36597,6.75079,4.75049,15.495,6.46362,23.90704,4.03394l5.7124-1.65039c-4.46777,7.09277-6.87305,15.37793-6.81885,24.00781,.08496,13.50586,6.18213,26.08984,16.72705,34.52539l.90137,.72168,5-6.24414-.90283-.72266c-8.65283-6.92285-13.65576-17.24902-13.72559-28.33008-.06982-11.08203,4.80322-21.46973,13.36865-28.50098,1.46729-1.2041,1.88623-3.27441,1.00244-4.9541-.88379-1.68066-2.82471-2.50879-4.65039-1.98047l-18.83496,5.44238c-9.64844,2.78906-19.91162-2.05371-23.90234-11.26172l49.10156-18.60352,39.15283,15.62793,2.96582-7.42969-40.59814-16.20508Z"/><path class="f" d="M478.53564,168.30371l-6.56348,19.69141c-2.11182,6.33496-8.79932,9.87012-15.22217,8.03906-.46167-.1311-.90942-.29077-1.34668-.47021,1.27356-1.95679,2.32349-4.0957,3.09131-6.39893l1.30029-3.90039c.34473-1.03418,.25195-2.16602-.25684-3.13086-.50928-.96484-1.39014-1.67969-2.43896-1.97949l-8.00671-2.2876,8.26453-24.81885-7.59082-2.52734-8.37219,25.14648-23.99744-6.85645,8.69287-26.16211-7.5918-2.52344-8.80054,26.48584-8.5979-2.45654c-.9624-.27637-1.99316-.17871-2.88818,.26758l-38.75635,19.37793,3.57812,7.15625,37.36426-18.68262,50.48682,14.4248c-3.20459,9.51172-13.02246,15.19434-22.875,13.22461l-19.22412-3.84473c-1.81299-.36523-3.63135,.55957-4.41016,2.23242-.7793,1.67188-.31396,3.66016,1.12695,4.8125,9.2832,7.42676,14.98438,18.49414,15.6416,30.36426,.65771,11.87012-3.78662,23.5-12.19336,31.90625l-3.77832,3.77832,5.65723,5.65625,3.77832-3.77832c10.01318-10.0127,15.30713-23.86523,14.52393-38.00488-.53662-9.69434-3.89795-18.93848-9.52197-26.64355l6.83105,1.36523c8.58716,1.71729,17.15698-.72217,23.48596-6.02173,1.45056,.83813,2.9917,1.51685,4.63464,1.98462,1.87939,.53418,3.771,.79004,5.6333,.79004,8.58984,0,16.51709-5.44238,19.36816-13.99512l6.56348-19.69141-7.58984-2.5293Z"/></g></g><g id="d"/></svg>